<mxfile host="app.diagrams.net" modified="2023-05-07T04:39:26.520Z" agent="Mozilla/5.0 (Windows NT 10.0; Win64; x64) AppleWebKit/537.36 (KHTML, like Gecko) Chrome/113.0.0.0 Safari/537.36 Edg/113.0.1774.35" version="21.2.9" etag="qaWH7Y-PBdIb_BeDq5U3" type="github">
  <diagram name="第 1 页" id="M37MpCRzEUiQbfmB7Pvi">
    <mxGraphModel>
      <root>
        <mxCell id="0" />
        <mxCell id="1" parent="0" />
      </root>
    </mxGraphModel>
  </diagram>
</mxfile>
